<svg width="18" height="18" viewBox="0 0 18 18" fill="none" xmlns="http://www.w3.org/2000/svg">
<path fill-rule="evenodd" clip-rule="evenodd" d="M0.851997 17.787C1.08906 17.9171 1.35475 17.9861 1.62514 17.9879C1.84888 17.987 2.07006 17.9403 2.27514 17.8509L4.72814 16.7999C6.61746 17.8367 8.8174 18.1572 10.924 17.7024C13.0306 17.2477 14.9024 16.0482 16.1958 14.3243C17.4891 12.6004 18.1172 10.4678 17.9645 8.31811C17.8119 6.1684 16.8889 4.14589 15.365 2.62199C13.8411 1.09809 11.8186 0.17509 9.66892 0.0224835C7.5192 -0.130123 5.38659 0.49791 3.66269 1.79125C1.9388 3.0846 0.739343 4.95643 0.284586 7.06303C-0.170171 9.16963 0.150297 11.3696 1.18714 13.2589L0.136143 15.7119C0.0277478 15.9576 -0.0170679 16.2266 0.00582556 16.4941C0.028719 16.7617 0.118585 17.0192 0.267143 17.2429C0.413946 17.47 0.614933 17.6569 0.851997 17.787ZM5 10.25C5 9.83579 5.33579 9.5 5.75 9.5H12.25C12.6642 9.5 13 9.83579 13 10.25C13 10.6642 12.6642 11 12.25 11H5.75C5.33579 11 5 10.6642 5 10.25ZM5.75 6.5C5.33579 6.5 5 6.83579 5 7.25C5 7.66421 5.33579 8 5.75 8H8.25C8.66421 8 9 7.66421 9 7.25C9 6.83579 8.66421 6.5 8.25 6.5H5.75Z" fill="white"/>
</svg>
