<svg width="15" height="18" viewBox="0 0 15 18" fill="none" xmlns="http://www.w3.org/2000/svg">
<path d="M6.29803 18C6.07103 18 5.84603 17.992 5.63003 17.975C5.15478 17.9311 4.70886 17.7259 4.36633 17.3936C4.02379 17.0612 3.80526 16.6217 3.74703 16.148L3.67603 15.657C3.64147 15.5035 3.57222 15.36 3.47359 15.2375C3.37496 15.1149 3.24956 15.0166 3.10703 14.95C2.98303 14.883 2.86003 14.812 2.74203 14.738C2.55983 14.6194 2.34834 14.5536 2.13103 14.548C2.03324 14.5469 1.93616 14.5645 1.84503 14.6L1.38303 14.784C1.11882 14.8887 0.837229 14.9427 0.553025 14.943C0.220844 14.9485 -0.107528 14.8716 -0.402773 14.7193C-0.698017 14.567 -0.950945 14.3439 -1.13897 14.07C-1.39081 13.6998 -1.61476 13.3114 -1.80897 12.908C-2.00832 12.4746 -2.05323 11.986 -1.93624 11.5235C-1.81926 11.061 -1.54742 10.6525 -1.16597 10.366L-0.774974 10.056C-0.659136 9.94993 -0.569224 9.81866 -0.512179 9.67232C-0.455134 9.52598 -0.432483 9.36848 -0.445974 9.212C-0.445974 9.149 -0.445974 9.079 -0.445974 9C-0.445974 8.921 -0.445974 8.851 -0.445974 8.788C-0.432483 8.63152 -0.455134 8.47402 -0.512179 8.32768C-0.569224 8.18134 -0.659136 8.05007 -0.774974 7.944L-1.16597 7.634C-1.54727 7.34738 -1.81899 6.93889 -1.93597 6.47645C-2.05294 6.014 -2.00813 5.52545 -1.80897 5.092C-1.61493 4.6885 -1.39097 4.30008 -1.13897 3.93C-0.950945 3.6561 -0.698017 3.43303 -0.402773 3.2807C-0.107528 3.12836 0.220844 3.05151 0.553025 3.057C0.837229 3.05734 1.11882 3.11128 1.38303 3.216L1.84503 3.4C1.93616 3.43545 2.03324 3.4531 2.13103 3.452C2.34834 3.44636 2.55983 3.38059 2.74203 3.262C2.86003 3.188 2.98303 3.116 3.10703 3.05C3.24965 2.98356 3.37512 2.88526 3.47377 2.76269C3.57242 2.64011 3.64161 2.49653 3.67603 2.343L3.74703 1.853C3.80519 1.37908 4.02365 0.939287 4.36615 0.606606C4.70865 0.273924 5.15461 0.0683519 5.63003 0.024C5.85003 0.008 6.07403 0 6.29803 0C6.52203 0 6.74703 0.008 6.96703 0.024C7.44224 0.0681685 7.88805 0.273575 8.2304 0.606104C8.57275 0.938633 8.79105 1.37827 8.84903 1.852L8.92103 2.342C8.95498 2.49558 9.02389 2.63926 9.1224 2.76188C9.22091 2.8845 9.34637 2.98275 9.48903 3.049C9.60803 3.112 9.72803 3.182 9.85503 3.261C10.0372 3.37959 10.2487 3.44536 10.466 3.451C10.5641 3.45216 10.6616 3.43451 10.753 3.399L11.214 3.215C11.4783 3.11035 11.7598 3.05641 12.044 3.056C12.3762 3.0506 12.7045 3.12749 12.9998 3.27982C13.295 3.43214 13.5479 3.65517 13.736 3.929C13.9887 4.29902 14.2133 4.68744 14.408 5.091C14.6072 5.52445 14.652 6.013 14.535 6.47545C14.418 6.93789 14.1463 7.34638 13.765 7.633L13.373 7.943C13.2572 8.04907 13.1674 8.18037 13.1106 8.32673C13.0537 8.47309 13.0313 8.63058 13.045 8.787C13.045 8.857 13.045 8.928 13.045 8.999C13.045 9.07 13.045 9.141 13.045 9.211C13.0313 9.36742 13.0537 9.52491 13.1106 9.67127C13.1674 9.81763 13.2572 9.94893 13.373 10.055L13.765 10.365C14.1465 10.6515 14.4183 11.06 14.5353 11.5225C14.6523 11.985 14.6074 12.4736 14.408 12.907C14.2132 13.3105 13.9886 13.6989 13.736 14.069C13.5479 14.3428 13.295 14.5659 12.9998 14.7182C12.7045 14.8705 12.3762 14.9474 12.044 14.942C11.7598 14.9416 11.4783 14.8876 11.214 14.783L10.753 14.599C10.6616 14.5635 10.5641 14.5458 10.466 14.547C10.2487 14.5526 10.0372 14.6184 9.85503 14.737C9.72703 14.817 9.60803 14.886 9.48903 14.949C9.3465 15.0154 9.22116 15.1137 9.12267 15.2363C9.02418 15.3589 8.95519 15.5025 8.92103 15.656L8.84903 16.147C8.79119 16.6207 8.57291 17.0603 8.23051 17.3927C7.88811 17.7251 7.44222 17.9302 6.96703 17.974C6.75103 17.992 6.52603 18 6.29803 18ZM2.12503 13.046C2.62383 13.0535 3.11094 13.1981 3.53303 13.464C3.64603 13.533 3.73303 13.584 3.81703 13.628C4.16783 13.8034 4.4723 14.059 4.70567 14.3742C4.93903 14.6894 5.09471 15.0553 5.16003 15.442L5.23103 15.932C5.24124 16.0673 5.29704 16.1952 5.3893 16.2947C5.48157 16.3943 5.60485 16.4596 5.73903 16.48C5.91903 16.493 6.10703 16.5 6.29803 16.5C6.48903 16.5 6.67703 16.493 6.85703 16.48C6.9912 16.4596 7.11448 16.3943 7.20675 16.2947C7.29901 16.1952 7.35481 16.0673 7.36503 15.932L7.43603 15.442C7.50153 15.0552 7.65738 14.6893 7.89092 14.3741C8.12445 14.0589 8.42908 13.8033 8.78003 13.628C8.87103 13.579 8.96003 13.528 9.06503 13.464C9.48671 13.198 9.97353 13.0534 10.472 13.046C10.7583 13.0452 11.0421 13.0991 11.308 13.205L11.769 13.389C11.856 13.4246 11.949 13.4433 12.043 13.444C12.131 13.4469 12.2184 13.4284 12.2976 13.39C12.3769 13.3517 12.4456 13.2947 12.498 13.224C12.7082 12.9157 12.8951 12.5921 13.057 12.256C13.1076 12.1302 13.1133 11.9909 13.0733 11.8614C13.0332 11.732 12.9498 11.6202 12.837 11.545L12.445 11.234C12.1424 10.9848 11.9031 10.6675 11.7467 10.3081C11.5903 9.94864 11.5211 9.55727 11.545 9.166V9V8.834C11.5212 8.44259 11.5904 8.0511 11.7468 7.69152C11.9032 7.33193 12.1425 7.01445 12.445 6.765L12.837 6.455C12.9499 6.37962 13.0333 6.2677 13.0734 6.13804C13.1135 6.00839 13.1077 5.8689 13.057 5.743C12.8951 5.40686 12.7082 5.08329 12.498 4.775C12.4456 4.70399 12.3767 4.64678 12.2973 4.60828C12.2178 4.56978 12.1302 4.55116 12.042 4.554C11.9484 4.55479 11.8557 4.57346 11.769 4.609L11.308 4.794C11.0417 4.8998 10.7576 4.95376 10.471 4.953C9.97281 4.94577 9.48627 4.80112 9.06503 4.535C8.97503 4.481 8.87803 4.424 8.78003 4.37C8.42913 4.19516 8.12449 3.9399 7.89094 3.62502C7.65738 3.31014 7.50151 2.94454 7.43603 2.558L7.36503 2.068C7.35584 1.93242 7.30037 1.80411 7.2079 1.70453C7.11543 1.60496 6.99156 1.54017 6.85703 1.521C6.67703 1.508 6.48903 1.501 6.29803 1.501C6.10703 1.501 5.91903 1.508 5.73903 1.521C5.60449 1.54017 5.48063 1.60496 5.38815 1.70453C5.29568 1.80411 5.24021 1.93242 5.23103 2.068L5.16003 2.558C5.09497 2.94455 4.9395 3.31026 4.70629 3.62532C4.47308 3.94038 4.16872 4.19588 3.81803 4.371C3.73303 4.416 3.64303 4.471 3.53403 4.536C3.11238 4.80206 2.62554 4.94669 2.12703 4.954C1.84073 4.95422 1.55701 4.89992 1.29103 4.794L0.831025 4.609C0.744333 4.57353 0.651689 4.55487 0.558025 4.554C0.46979 4.55107 0.382167 4.56966 0.302722 4.60816C0.223277 4.64667 0.154396 4.70393 0.102026 4.775C-0.108471 5.08328 -0.295658 5.40685 -0.457974 5.743C-0.508051 5.86897 -0.513535 6.00828 -0.473517 6.13779C-0.433498 6.26731 -0.350384 6.37924 -0.237974 6.455L0.154026 6.765C0.456713 7.01434 0.696063 7.33181 0.852492 7.69142C1.00892 8.05103 1.07798 8.44257 1.05403 8.834V9V9.166C1.07806 9.55729 1.00904 9.94871 0.852595 10.3082C0.696155 10.6676 0.456758 10.9849 0.154026 11.234L-0.237974 11.545C-0.350447 11.6205 -0.433641 11.7322 -0.473677 11.8616C-0.513714 11.991 -0.508171 12.1302 -0.457974 12.256C-0.295823 12.5922 -0.108629 12.9158 0.102026 13.224C0.154348 13.2948 0.223105 13.3518 0.30237 13.3902C0.381635 13.4285 0.469031 13.447 0.557025 13.444C0.651021 13.4432 0.744007 13.4245 0.831025 13.389L1.29103 13.205C1.5564 13.0995 1.83945 13.0455 2.12503 13.046ZM6.29803 12.746C5.55618 12.746 4.83099 12.526 4.21422 12.1137C3.59745 11.7015 3.11681 11.1156 2.8331 10.4301C2.54939 9.74468 2.47536 8.99048 2.62038 8.26294C2.7654 7.5354 3.12295 6.86722 3.64779 6.34294C4.17264 5.81865 4.8412 5.46181 5.56889 5.31757C6.29658 5.17333 7.05071 5.24816 7.73586 5.5326C8.42102 5.81704 9.00641 6.29831 9.41798 6.91552C9.82956 7.53273 10.0488 8.25815 10.048 9C10.047 9.99424 9.65154 10.9474 8.94851 11.6505C8.24548 12.3535 7.29226 12.7489 6.29803 12.75V12.746ZM6.29803 6.746C5.85319 6.746 5.41833 6.87786 5.04841 7.12492C4.67849 7.37197 4.3901 7.72314 4.21968 8.13404C4.04927 8.54494 4.00448 8.99714 4.09097 9.43348C4.17746 9.86983 4.39136 10.2708 4.70563 10.5856C5.01989 10.9004 5.42043 11.115 5.85663 11.2023C6.29282 11.2895 6.74509 11.2456 7.1563 11.0759C7.5675 10.9062 7.91918 10.6184 8.16689 10.2489C8.4146 9.87946 8.54724 9.44484 8.54803 9C8.54723 8.40351 8.30993 7.83167 7.88814 7.40989C7.46635 6.9881 6.89452 6.75079 6.29803 6.75V6.746Z" fill="black" fill-opacity="0.45"/>
</svg>
